<svg version="1" xmlns="http://www.w3.org/2000/svg" width="2354.667" height="2354.667" viewBox="0 0 1766.000000 1766.000000"><path d="M0 883v883h1766V0H0v883zm1543-145.5c13.4 1.6 22.2 4 34 9 40 17.1 67.7 50.7 77.1 93.7 2.6 12.1 3.6 33.6 2 46.2-7.3 58-49.2 101.8-107.4 112.3-12.5 2.2-36.2 2.2-48.1-.1-48.7-9.4-86.2-41.6-101.4-87.2-7.4-22.1-8.6-49.3-3.1-72.7 12.7-54 58.6-95.3 113.1-101.6 11.1-1.3 21.1-1.2 33.8.4zM210 747c21.5 1.6 40.9 8.1 57.1 19.1 9 6.1 22.8 19.7 28.8 28.3 12.9 18.7 19.1 37.2 21 62.6 2.4 33.4-5.7 64.6-23.4 89.5-9.8 13.8-28.9 29.1-44.3 35.6-17.8 7.4-16.6 7.3-78.4 7.7l-55.8.3V947h35.3c37.1 0 47.4-.8 63.9-5 26.9-6.9 40.2-19 48.7-44.6 9.4-28 4.9-56.4-12.9-80.6-8.5-11.6-24.2-20.1-45.6-24.9-9-2-13.4-2.2-49.6-2.6l-39.8-.5V746h41.3c22.6 0 46.8.5 53.7 1zm344 20.5V789H358v-43h196v21.5zm88.8-20.3c.5.7 20.4 41.3 44.1 90.3 36.4 75.3 43.3 89 45.1 89 1.7 0 6.1-8.5 28.1-54.5 14.3-30 33.7-70.6 43.1-90.3l17.1-35.7h28.8c15.9 0 28.9.3 28.9.7 0 .5-26.7 55.2-59.3 121.8l-59.3 121h-54.8l-59.8-120.9C611.9 802.2 585 747.4 585 746.9c0-1.5 56.6-1.1 57.8.3zm462.2 20.3V789H908v-20.8c0-11.5.3-21.2.7-21.5.3-.4 44.7-.7 98.5-.7h97.8v21.5zm192.4-20.5c26.7 2.6 45.5 15 57 37.7 10.4 20.6 11.4 52.1 2.5 76.8-7 19.2-16.4 28.6-38.5 38.1-2 .8.5 4.3 31.3 43.9 18.3 23.6 33.8 43.8 34.4 44.7.9 1.7-.9 1.8-31.4 1.8h-32.3l-37.5-45.2c-20.6-24.9-43.8-53-51.6-62.4-7.9-9.5-14.3-17.5-14.3-17.8 0-.3 16.8-.6 37.3-.8 35.3-.3 37.4-.4 41.7-2.4 9-4.2 13.6-10.8 16.5-23.8 3.2-14.4-.2-28.3-9.1-37.1-7.6-7.4-2.5-7-84.6-7.3l-73.8-.3v-22.8c0-12.5.3-23.1.7-23.4 1.1-1.1 139.8-.8 151.7.3zM554 868.5V890H358v-43h196v21.5zm551 0V890l-98.2-.2-98.3-.3-.3-21.3-.2-21.2h197v21.5zm-551 100V990H358v-43h196v21.5zm551 0V990H908v-20.8c0-11.5.3-21.2.7-21.5.3-.4 44.7-.7 98.5-.7h97.8v21.5z"/><path d="M1514.2 786.1c-26 3.1-49.5 20-62.6 44.9-7.5 14.4-9.1 21-9.1 38.5 0 12.9.3 16 2.3 22.5 9.1 28.9 30.9 49.6 60 57.1 10.7 2.7 29.9 2.6 40.8-.1 28.7-7.4 50.8-28.1 59.4-55.5 3.1-9.8 3.9-29.1 1.7-40-6.5-31.9-30.5-57.7-60.7-65.4-9.4-2.3-22.3-3.2-31.8-2z"/></svg>